0
SECTION
2
HEADER
9
$INSUNITS
70
4
9
$ACADVER
1
AC1014
9
$HANDSEED
5
FFFF
0
ENDSEC
0
SECTION
2
TABLES
0
TABLE
2
VPORT
5
8
100
AcDbSymbolTable
0
ENDTAB
0
TABLE
2
LTYPE
5
5
100
AcDbSymbolTable
0
LTYPE
5
14
100
AcDbSymbolTableRecord
100
AcDbLinetypeTableRecord
2
BYBLOCK
70
0
0
LTYPE
5
15
100
AcDbSymbolTableRecord
100
AcDbLinetypeTableRecord
2
BYLAYER
70
0
0
ENDTAB
0
TABLE
2
LAYER
5
2
100
AcDbSymbolTable
70
2
0
LAYER
5
50
100
AcDbSymbolTableRecord
100
AcDbLayerTableRecord
2
0
70
0
6
CONTINUOUS
0
ENDTAB
0
TABLE
2
STYLE
5
3
100
AcDbSymbolTable
70
1
0
STYLE
5
11
100
AcDbSymbolTableRecord
100
AcDbTextStyleTableRecord
2
STANDARD
70
0
0
ENDTAB
0
TABLE
2
VIEW
5
6
100
AcDbSymbolTable
70
0
0
ENDTAB
0
TABLE
2
UCS
5
7
100
AcDbSymbolTable
70
0
0
ENDTAB
0
TABLE
2
APPID
5
9
100
AcDbSymbolTable
70
2
0
APPID
5
12
100
AcDbSymbolTableRecord
100
AcDbRegAppTableRecord
2
ACAD
70
0
0
ENDTAB
0
TABLE
2
DIMSTYLE
5
A
100
AcDbSymbolTable
70
1
0
ENDTAB
0
TABLE
2
BLOCK_RECORD
5
1
100
AcDbSymbolTable
70
1
0
BLOCK_RECORD
5
1F
100
AcDbSymbolTableRecord
100
AcDbBlockTableRecord
2
*MODEL_SPACE
0
BLOCK_RECORD
5
1B
100
AcDbSymbolTableRecord
100
AcDbBlockTableRecord
2
*PAPER_SPACE
0
ENDTAB
0
ENDSEC
0
SECTION
2
BLOCKS
0
BLOCK
5
20
100
AcDbEntity
100
AcDbBlockBegin
2
*MODEL_SPACE
0
ENDBLK
5
21
100
AcDbEntity
100
AcDbBlockEnd
0
BLOCK
5
1C
100
AcDbEntity
100
AcDbBlockBegin
2
*PAPER_SPACE
0
ENDBLK
5
1D
100
AcDbEntity
100
AcDbBlockEnd
0
ENDSEC
0
SECTION
2
ENTITIES
0
LINE
5
100
100
AcDbEntity
8
0
100
AcDbLine
10
-50
20
-64.999999999999943
30
0
11
-50
21
-440.00000000000006
31
0
0
ARC
5
101
100
AcDbEntity
8
0
100
AcDbCircle
10
-10.000000149011615
20
-447.00000666081905
30
0
40
17.000000253319687
210
0
220
0
230
1
100
AcDbArc
50
238.78933214730753
51
301.21066785270909
0
ARC
5
102
100
AcDbEntity
8
0
100
AcDbCircle
10
-36.180334195782592
20
-456.24999237247329
30
0
40
11.249992372473303
210
0
220
-0
230
1
100
AcDbArc
50
16.691428333502873
51
89.999999999999901
0
ARC
5
103
100
AcDbEntity
8
0
100
AcDbCircle
10
-11.036372800159279
20
-448.71054246612346
30
0
40
15.000000000000902
210
0
220
0
230
1
100
AcDbArc
50
196.69142833350477
51
238.78933214730671
0
ARC
5
104
100
AcDbEntity
8
0
100
AcDbCircle
10
16.180333897759297
20
-456.24999237247323
30
0
40
11.24999237247323
210
0
220
-0
230
1
100
AcDbArc
50
89.99999999999973
51
163.30857166649616
0
ARC
5
105
100
AcDbEntity
8
0
100
AcDbCircle
10
-8.9636274978581678
20
-448.710542466128
30
0
40
14.99999999999401
210
0
220
0
230
1
100
AcDbArc
50
301.21066785270222
51
343.3085716665064
0
ARC
5
106
100
AcDbEntity
8
0
100
AcDbCircle
10
344.24966580421739
20
-281.24999237247329
30
0
40
11.249992372473336
210
0
220
0
230
1
100
AcDbArc
50
106.69142833350287
51
180
0
ARC
5
107
100
AcDbEntity
8
0
100
AcDbCircle
10
336.71021589786756
20
-256.10603097684998
30
0
40
15.000000000000853
210
-0
220
0
230
1
100
AcDbArc
50
286.6914283335048
51
328.78933214730671
0
ARC
5
108
100
AcDbEntity
8
0
100
AcDbCircle
10
336.7102158978721
20
-254.03328567454884
30
0
40
14.999999999993964
210
0
220
-0
230
1
100
AcDbArc
50
31.210667852760547
51
73.30857166650658
0
ARC
5
109
100
AcDbEntity
8
0
100
AcDbCircle
10
344.24966580421733
20
-228.88932427893138
30
0
40
11.24999237247323
210
0
220
0
230
1
100
AcDbArc
50
180
51
253.30857166649585
0
ARC
5
110
100
AcDbEntity
8
0
100
AcDbCircle
10
334.99968009256315
20
-255.06965832570231
30
0
40
17.000000253319694
210
-0
220
0
230
1
100
AcDbArc
50
-31.210667852692524
51
31.210667852760629
0
LINE
5
111
100
AcDbEntity
8
0
100
AcDbLine
10
333
20
-440.00000000000006
30
0
11
333
21
-281.16427379730106
31
0
0
LINE
5
112
100
AcDbEntity
8
0
100
AcDbLine
10
333
20
-228.97504285409917
30
0
11
333
21
-64.999999999999929
31
0
0
LINE
5
113
100
AcDbEntity
8
0
100
AcDbLine
10
-45.000000000000057
20
-444.99999999999994
30
0
11
-36.180334195782571
21
-445
31
0
0
LINE
5
114
100
AcDbEntity
8
0
100
AcDbLine
10
16.18033389775935
20
-445
30
0
11
328.00000000000011
21
-445
31
0
0
LINE
5
115
100
AcDbEntity
8
0
100
AcDbLine
10
-50
20
-252.5
30
0
11
-9.9219511452965037
21
-252.5
31
0
0
ARC
5
116
100
AcDbEntity
8
0
100
AcDbCircle
10
16.180333897759294
20
-48.75000762752677
30
0
40
11.249992372473264
210
0
220
0
230
1
100
AcDbArc
50
196.69142833350398
51
270.00000000000023
0
ARC
5
117
100
AcDbEntity
8
0
100
AcDbCircle
10
-8.9636274978581643
20
-56.289457533871996
30
0
40
14.999999999994012
210
0
220
-0
230
1
100
AcDbArc
50
16.691428333493505
51
58.789332147297834
0
ARC
5
118
100
AcDbEntity
8
0
100
AcDbCircle
10
-10.000000149011615
20
-57.999993339180946
30
0
40
17.000000253319683
210
0
220
-0
230
1
100
AcDbArc
50
58.789332147290942
51
121.21066785269247
0
ARC
5
119
100
AcDbEntity
8
0
100
AcDbCircle
10
-11.036372800159278
20
-56.289457533876543
30
0
40
15.000000000000899
210
0
220
0
230
1
100
AcDbArc
50
121.21066785269326
51
163.30857166649514
0
ARC
5
120
100
AcDbEntity
8
0
100
AcDbCircle
10
-36.180334195782592
20
-48.750007627526699
30
0
40
11.249992372473301
210
-0
220
0
230
1
100
AcDbArc
50
270.00000000000011
51
343.30857166649724
0
LINE
5
121
100
AcDbEntity
8
0
100
AcDbLine
10
328.00000000000006
20
-60
30
0
11
16.180333897759347
21
-60
31
0
0
LINE
5
122
100
AcDbEntity
8
0
100
AcDbLine
10
-36.180334195782571
20
-60
30
0
11
-45.000000000000057
21
-60
31
0
0
ARC
5
123
100
AcDbEntity
8
0
100
AcDbCircle
10
328.00000000000006
20
-64.999999999999929
30
0
40
4.9999999999999289
210
0
220
0
230
1
100
AcDbArc
50
0
51
90
0
ARC
5
124
100
AcDbEntity
8
0
100
AcDbCircle
10
328.00000000000006
20
-440.00000000000006
30
0
40
4.9999999999999289
210
-0
220
0
230
1
100
AcDbArc
50
-89.999999999999332
51
0
0
ARC
5
125
100
AcDbEntity
8
0
100
AcDbCircle
10
-45.000000000000064
20
-440
30
0
40
4.9999999999999378
210
0
220
0
230
1
100
AcDbArc
50
180
51
270.00000000000011
0
ARC
5
126
100
AcDbEntity
8
0
100
AcDbCircle
10
-45.000000000000057
20
-64.999999999999943
30
0
40
4.9999999999999467
210
0
220
-0
230
1
100
AcDbArc
50
90
51
180
0
LWPOLYLINE
5
127
100
AcDbEntity
8
0
100
AcDbPolyline
90
4
70
1
43
0.0
10
345.46489414047824
20
-252.43518349839829
42
-0.99999999999999989
10
345.43518218709619
20
-257.53509694862726
10
340.33526873686725
20
-257.50538499524521
42
-0.99999999999999989
10
340.3649806902493
20
-252.40547154501624
0
LINE
5
128
100
AcDbEntity
8
0
100
AcDbLine
10
-9.0341199955961571
20
-46.693315560785997
30
0
11
-6.5098945769066319
21
-51.124826142477211
31
0
0
ARC
5
129
100
AcDbEntity
8
0
100
AcDbCircle
10
-8.7256498677522387
20
-52.386938851822045
30
0
40
2.5499999999999763
210
1.693279528004045e-47
220
-2.9727084160362707e-47
230
1
100
AcDbArc
50
-150.33379983529267
51
29.666200164708712
0
LINE
5
130
100
AcDbEntity
8
0
100
AcDbLine
10
-13.465630577287513
20
-49.217540979475594
30
0
11
-10.941405158597846
21
-53.649051561166807
31
0
0
ARC
5
131
100
AcDbEntity
8
0
100
AcDbCircle
10
-11.249875286441764
20
-47.95542827013076
30
0
40
2.5499999999999763
210
-2.4402729764330018e-32
220
4.2841243247174798e-32
230
1
100
AcDbArc
50
29.666200164707341
51
209.66620016470713
0
LWPOLYLINE
5
132
100
AcDbEntity
8
0
100
AcDbPolyline
90
4
70
1
43
0.0
10
-11.093561705456025
20
-452.552780281396
10
-13.669249736995468
20
-456.95457890970516
42
0.99999999999999989
10
-9.2674511086863021
20
-459.53026694124458
10
-6.6917630771468595
20
-455.12846831293541
42
0.99999999999999989
0
CIRCLE
5
133
100
AcDbEntity
8
0
100
AcDbCircle
10
98.399997800588608
20
-430.49999037757516
30
0
40
1.7499999999999971
210
0
220
0
230
1
0
CIRCLE
5
134
100
AcDbEntity
8
0
100
AcDbCircle
10
225.89999495074153
20
-74.799998328089714
30
0
40
1.7499999999999907
210
0
220
0
230
1
0
CIRCLE
5
135
100
AcDbEntity
8
0
100
AcDbCircle
10
-29.099999349564314
20
-74.799998328089714
30
0
40
1.7499999999999969
210
0
220
0
230
1
0
ENDSEC
0
SECTION
2
OBJECTS
0
DICTIONARY
5
C
100
AcDbDictionary
3
ACAD_GROUP
350
D
3
ACAD_MLINESTYLE
350
17
0
DICTIONARY
5
D
100
AcDbDictionary
0
DICTIONARY
5
1A
330
C
100
AcDbDictionary
0
DICTIONARY
5
17
100
AcDbDictionary
0
ENDSEC
0
EOF
